# xmcd CD database file
#
# Track frame offsets:
#	150
#	20169
#	50671
#	62391
#	85092
#	116973
#	132365
#	166364
#	214630
#
# Disc length: 3207 seconds
#
# Revision: 0
# Processed by: cddbd v1.5.1PL0 Copyright (c) Steve Scherf et al.
# Submitted via: CDex 1.51
#
DISCID=7d0c8509
DTITLE=hr Big Band - ¡Libertango!
DYEAR=2001
DGENRE=Jazz
TTITLE0=Michelangelo
TTITLE1=Milonga Del Angel
TTITLE2=Tres Minutos Con La Realidad
TTITLE3=La Camorra
TTITLE4=Resurreción Del Angel
TTITLE5=Milonga Loca
TTITLE6=Mumuki
TTITLE7=Zum
TTITLE8=Libertango
EXTD=YEAR: 2001
EXTT0=
EXTT1=
EXTT2=
EXTT3=
EXTT4=
EXTT5=
EXTT6=
EXTT7=
EXTT8=
PLAYORDER=
